<?xml version="1.0" encoding="UTF-8"?> <svg xmlns="http://www.w3.org/2000/svg" width="180" height="63" viewBox="0 0 180 63" fill="none"><g clip-path="url(#clip0_56_146)"><path d="M39.567 24.8672C38.8323 23.1813 34.3345 27.1964 34.4124 26.3091C34.4903 25.4218 34.4124 17.813 34.4124 17.813C36.8283 17.0144 38.1977 15.5947 37.7523 14.8516C37.307 14.1084 34.4124 16.5375 34.4124 15.8165C34.4124 15.0956 34.2565 9.48324 34.3345 8.52936C34.4124 7.57549 35.9377 7.96372 36.0267 7.16512C36.1158 6.36653 34.6573 6.5218 34.6573 6.5218C34.6573 6.5218 34.8912 5.15755 34.0896 5.32392C33.288 5.4903 33.6888 7.16512 33.6888 7.16512C32.1635 8.27428 27.8995 9.32796 27.8995 9.32796C27.2408 7.69291 26.4045 6.13453 25.4057 4.68059C28.1999 4.29911 30.884 3.34354 33.288 1.87443C19.7056 -0.288418 -1.46148e-05 6.59944 -1.46148e-05 6.59944C-0.400806 8.92867 21.7875 5.64559 23.0789 5.64559C24.3704 5.64559 26.1294 8.83995 25.8956 9.5609C25.6618 10.2819 12.0571 10.0489 6.26793 10.2042C0.478714 10.3595 0.701383 13.5317 1.36937 13.7313C2.03736 13.931 3.38448 13.576 5.14351 12.6221C6.90254 11.6683 25.9735 11.4132 26.9421 12.0565C27.9107 12.6998 27.8216 17.9128 27.8216 17.9128C27.8216 17.9128 20.908 18.1457 19.5386 17.7464C18.1692 17.3471 17.6905 15.8276 15.0854 15.75C12.4802 15.6723 11.7454 17.7465 8.97326 17.9683C6.20112 18.1901 5.43294 19.6542 5.43294 19.6542L28.9906 19.4878V28.6162C27.1425 29.4259 14.5175 29.6588 11.7899 29.4258C9.06233 29.1929 9.69694 30.6237 9.69694 30.6237C9.93074 32.6202 28.9906 30.5461 28.9906 30.5461V37.1123C24.9715 36.6243 17.2452 40.6394 16.5215 40.6394C15.7979 40.6394 13.7939 36.3137 13.7939 36.3137C11.7009 31.1007 11.6229 34.0289 11.6229 34.0289C12.9478 40.1514 18.4587 49.557 18.4587 49.557L18.5366 49.801C16.4436 51.2429 15.1967 53.0065 15.809 53.3281C16.4213 53.6498 19.4161 50.9989 19.4161 50.9989C27.0646 63.3327 30.7608 62.9334 30.7608 62.9334C31.8741 60.7151 32.6089 46.5179 32.6089 46.5179C36.472 46.5179 38.554 46.041 38.554 45.1537C38.554 44.2664 33.1655 44.5215 33.1655 44.5215C33.4884 42.8355 33.8112 38.1105 33.8112 38.1105C35.8263 37.7112 38.9547 38.4211 38.8768 37.0014C38.7989 35.5817 34.1341 36.9237 34.212 36.2915C34.29 35.6593 34.3011 28.594 34.3011 28.594C36.5834 28.1503 40.2796 26.531 39.567 24.8672ZM28.3671 11.2912C29.8303 10.9849 31.2616 10.543 32.6423 9.97128L32.5532 16.8591C31.5846 16.5375 29.2133 17.6577 29.2133 17.6577C29.5971 15.4994 29.3016 13.2756 28.3671 11.2912ZM32.6534 27.0634C31.9877 27.3847 31.279 27.6088 30.5492 27.7288L30.4824 19.2549C31.2058 19.1595 31.9156 18.9808 32.5977 18.7225L32.6534 27.0634ZM29.4805 60.5044C28.5119 60.2715 21.832 50.1782 21.832 50.1782C26.4968 47.0503 30.115 46.4181 30.7385 46.651C31.362 46.884 30.4713 60.7484 29.4805 60.5044ZM20.7744 48.6364C20.1732 47.8489 17.0893 42.2699 17.0893 42.2699C23.6133 39.2086 28.0665 39.02 28.6121 39.0755C29.1576 39.131 28.9683 42.9243 29.1465 43.5898C29.3246 44.2553 30.5381 43.6452 30.5381 43.6452C30.0594 36.6797 31.5735 38.6651 31.5735 38.6651V44.8542C26.2296 44.6767 20.8078 48.6364 20.8078 48.6364H20.7744ZM32.4753 36.3803L30.5938 36.5134C30.5938 36.5134 30.527 30.4463 30.527 29.9693C31.2179 29.9048 31.8922 29.7208 32.5198 29.4258C32.9874 29.1042 32.5087 36.3803 32.5087 36.3803H32.4753Z" fill="white"></path><path d="M47.093 53.9938C46.7368 53.9938 46.4028 53.3061 46.4028 53.3061C45.8206 53.3443 45.2421 53.1899 44.7569 52.867C44.2718 52.5442 43.9072 52.0708 43.7197 51.5204C45.8684 49.0137 46.2024 49.7014 46.8704 49.3797C46.7555 46.4025 46.815 43.4212 47.0485 40.451C47.2823 38.5876 46.1801 38.2327 45.1447 37.8888C45.0063 37.6162 44.9241 37.3187 44.903 37.0139C44.882 36.7091 44.9226 36.4032 45.0223 36.1142C45.7459 35.3822 46.6699 35.3932 47.4047 34.6612C48.2731 31.7441 48.0282 25.2334 49.9431 24.6788C50.0544 24.0355 51.2679 23.2258 51.0564 22.9042C51.0564 22.5382 50.0433 22.9042 49.3419 22.9042C47.9614 23.0706 45.5233 23.3811 45.167 23.3811C43.9424 18.767 54.3963 18.7227 57.1462 18.3677C58.2898 18.1658 59.4652 18.238 60.5752 18.5784C61.8788 18.5501 63.1602 18.9176 64.2491 19.6322C64.9616 19.6322 66.0193 21.1074 66.4757 21.6952C66.337 22.1885 66.337 22.7103 66.4757 23.2036C66.4757 25.2556 64.6165 27.7512 63.1358 28.6496C62.2118 29.8808 59.7959 30.9233 58.0035 32.2765C56.1105 33.2948 54.2914 34.4438 52.5594 35.7149C51.446 37.9332 59.6957 39.0424 62.4901 41.5601C67.4889 46.9174 60.642 48.8473 58.8941 49.5682C57.4579 50.5998 51.101 52.2635 49.3419 51.8975C49.3419 52.6184 48.8632 53.3505 48.8409 54.0381C48.5935 53.8436 48.2895 53.7341 47.9744 53.7261C47.6592 53.7181 47.3501 53.812 47.093 53.9938ZM52.359 32.3985C53.4723 32.3985 57.9255 29.5591 59.6734 28.1505C60.4527 27.1522 65.5851 22.394 54.4631 22.516C54.1403 22.9707 52.4258 25.6105 53.4723 27.5737C52.961 28.257 52.598 29.0388 52.4063 29.8695C52.2147 30.7001 52.1985 31.5614 52.359 32.3985ZM59.5064 44.1556C59.6177 43.4679 56.9235 42.0482 54.5188 41.3051C50.9339 40.2957 51.7466 39.5193 51.0341 39.8742C50.3773 41.1054 49.6091 47.8491 49.5868 48.57C50.0878 48.3925 51.8914 48.1263 53.3164 47.727C54.4476 47.2991 55.5299 46.7526 56.545 46.0966C58.8941 45.5199 59.3951 44.8765 59.5398 44.1556H59.5064Z" fill="#222221"></path><path d="M67.333 49.5682C67.1914 50.9199 66.7585 52.2252 66.0638 53.3948C63.2026 55.1583 64.0154 51.4205 64.8169 49.7346C64.8158 49.0417 65.0169 48.3634 65.3959 47.7825C65.3959 46.0522 66.5092 44.3663 66.5092 43.3458C65.574 43.5122 65.151 43.1573 65.2623 42.4252C65.3736 41.6932 65.7187 41.8374 65.3847 41.0166C65.8857 39.1421 66.3978 38.1883 68.3016 38.0108C68.7057 36.8162 69.2123 35.6584 69.8157 34.5503C70.6507 31.6886 72.9441 24.224 74.3469 23.2258C74.9703 22.5381 73.6121 22.8154 74.1799 21.3513C74.603 20.3087 75.2152 20.4972 75.9278 20.3198C76.6403 20.1423 77.0411 19.3659 77.1636 18.6339C78.0988 18.4564 79.6685 16.3157 81.1047 16.959C82.3627 17.5136 80.6594 19.8761 80.548 20.7856C81.5055 22.5714 83.5985 21.7617 83.888 23.9024C84.3359 25.8347 84.3965 27.8362 84.0661 29.792C84.7564 30.3355 84.2999 33.6186 84.2331 35.7592C85.2351 36.4025 85.2796 37.5449 83.8991 38.2659C83.8991 39.3196 83.2534 45.0096 83.0753 45.2869C82.9324 46.9342 82.6342 48.5644 82.1846 50.156C82.3182 51.3428 79.958 53.1064 79.8801 51.609C80.0565 49.8808 80.1382 48.1442 80.125 46.4071C80.4201 45.5862 80.4474 44.6933 80.2029 43.856C80.2029 42.4031 80.3142 40.0295 80.2586 39.2087C79.9914 39.0201 78.2435 39.9296 76.9186 39.8298C76.3842 39.9185 75.6606 40.4177 75.0928 40.4177C73.0888 40.8613 71.597 42.1812 70.094 42.1258C69.7618 43.4974 69.2051 44.8052 68.4463 45.9967C68.001 47.7935 67.7338 49.2909 67.333 49.5682ZM77.9318 37.1235C78.6939 36.7731 79.5327 36.6205 80.3699 36.6798C80.5369 36.7685 80.6594 35.9034 80.6928 34.8053C80.4478 33.9402 80.4924 32.709 80.8486 32.587C80.4924 32.4983 80.2029 30.2578 80.6928 28.9823C80.2586 28.9823 79.5794 26.2427 77.8204 26.0541C77.3305 26.0541 76.8741 26.8638 76.4065 27.4627C76.2841 28.7383 75.2932 29.9584 74.4916 31.4668C74.2922 32.3382 73.9817 33.1806 73.5675 33.9735C73.4562 34.9273 72.0869 36.3804 72.0646 37.423C72.4431 37.8333 76.0836 36.9349 77.8872 37.1235H77.9318Z" fill="#222221"></path><path d="M91.3471 44.1555C90.501 46.0743 90.1781 52.4963 89.1205 52.3965C88.8513 52.3677 88.5915 52.282 88.3582 52.1453C88.1249 52.0085 87.9236 51.8237 87.7676 51.6033C87.6117 51.3828 87.5047 51.1318 87.4539 50.867C87.403 50.6021 87.4095 50.3295 87.4728 50.0673C87.4728 48.6586 88.4525 43.4123 88.241 41.915C87.9849 41.5489 87.2056 41.1829 87.0386 40.6283C86.8619 39.9378 86.9492 39.2064 87.2835 38.5764C87.9461 38.4035 88.5306 38.0126 88.9423 37.4672C89.3431 36.0586 89.2429 30.4463 89.3097 28.2169C89.4388 26.4415 89.4611 24.6599 89.3765 22.8819C89.5233 21.9252 89.9536 21.0341 90.6121 20.3227C91.2707 19.6112 92.1275 19.112 93.0727 18.8889C94.0969 18.5229 97.9712 18.7225 101.534 20.4306C103.525 21.6274 105.42 22.9773 107.201 24.468C108.503 26.3424 107.635 28.9046 107.29 30.0692C106.945 31.2338 102.235 34.0622 100.131 35.1048C98.0938 36.6021 93.5403 37.2232 93.9411 38.7206C94.3308 40.4065 97.4257 43.1572 98.7617 44.2109C100.701 45.6185 102.559 47.133 104.328 48.7474C105.02 48.9283 105.621 49.3542 106.021 49.9452C106.811 49.9452 107.134 50.7217 107.535 50.9102C108.147 51.1875 108.926 56.0678 106.188 53.5944C104.74 52.8512 101.645 51.5203 99.9641 50.4222C97.949 48.6365 98.1939 49.1799 95.6889 47.3055C94.3699 46.0904 92.9127 45.0332 91.3471 44.1555ZM98.5057 33.2968C100.042 32.2542 99.9529 32.1877 102.024 30.7569C105.72 27.8952 101.601 25.5549 99.207 24.59C97.4948 24.1141 95.7547 23.7437 93.9968 23.4808C92.7053 23.6583 91.7701 23.5695 91.3582 24.59C91.3582 25.2776 90.8906 26.9192 91.8035 27.2298C93.3176 25.4662 94.9208 26.287 94.353 29.0266C93.4166 31.1998 92.9282 33.5384 92.9168 35.9034C94.8762 35.6039 95.8671 34.5613 98.5057 33.2968Z" fill="#222221"></path><path d="M115.049 51.0987C114.671 51.8308 114.059 51.6423 113.647 52.3299C112.533 52.5074 112.622 51.2762 112.533 50.0007C112.533 48.8915 112.533 47.6271 112.533 46.895C112.245 45.9689 112.276 44.973 112.622 44.0667C112.531 42.6386 112.576 41.2051 112.756 39.7854C113.201 36.6021 113.736 30.535 114.203 29.3482C114.37 26.7972 114.894 25.3442 114.86 23.4808C114.764 23.3075 114.619 23.1665 114.443 23.0756C114.266 22.9848 114.067 22.9482 113.869 22.9706C113.32 23.2958 112.679 23.4358 112.044 23.3699C110.843 23.5922 109.676 23.9648 108.57 24.479C107.201 24.845 106.856 24.5678 107.557 22.7931C107.602 21.7501 107.938 20.7402 108.525 19.876C109.271 18.3787 111.743 18.7669 112.901 18.3898C113.547 18.5783 113.457 18.6671 114.938 18.2234C116.609 18.0324 118.298 18.0697 119.959 18.3343C120.983 17.9683 122.331 18.7114 123.388 18.7114C124.023 19.4435 123.6 20.3973 123.655 21.4954C123.733 21.9058 123.778 23.2701 123.344 23.0039C122.274 22.9197 121.214 22.7302 120.182 22.4382C118.957 22.3384 117.844 22.4382 117.744 22.9706C118.182 23.314 118.545 23.743 118.811 24.2313C119.078 24.7195 119.241 25.2567 119.291 25.81C118.754 29.6249 117.951 33.3978 116.886 37.1012C116.618 39.5284 116.179 41.9338 115.573 44.2996C115.05 48.0486 115.261 50.0118 115.049 51.0987Z" fill="#222221"></path><path d="M146.935 30.4129C147.447 39.6633 139.843 46.285 136.915 48.9691C136.252 49.4413 135.634 49.9722 135.067 50.5552C133.152 51.0876 131.449 52.0415 129.5 52.0304C124.713 51.7864 123.689 46.0853 124.791 40.2955C124.791 39.8408 125.158 39.6522 125.158 39.386C125.24 38.8567 125.24 38.3181 125.158 37.7888C125.069 37.5115 124.802 37.7888 124.791 37.9774C124.579 39.1975 123.399 39.0089 123.422 38.421C123.622 37.4117 123.422 36.0918 124.401 35.0049C125.949 31.8216 126.795 31.4556 127.897 27.3628C128.745 25.2003 129.75 23.1022 130.903 21.085C131.705 20.5415 131.894 20.3529 132.161 20.1754C133.174 20.2753 133.274 21.4621 132.161 23.3254C131.682 25.0113 132.629 24.1019 132.818 23.7358C133.428 22.9921 134.228 22.4252 135.134 22.0943C135.422 21.6053 135.829 21.1959 136.317 20.9034C136.805 20.6109 137.359 20.4446 137.928 20.4195C138.362 20.4195 138.64 19.9647 139.041 19.876C141.468 20.2531 142.626 21.4399 144.374 23.4142C145.828 25.4834 146.711 27.8968 146.935 30.4129ZM128.788 44.1443C129.901 49.6901 133.464 48.8582 137.271 45.32C142.07 40.9721 141.335 39.0976 142.348 37.9552C144.218 32.72 142.348 24.967 137.037 25.1223C132.851 26.1538 132.194 27.4737 130.502 29.692C130.135 31.8438 128.61 35.6593 128.777 38.7649C128.601 40.5539 128.605 42.356 128.788 44.1443Z" fill="#222221"></path><path d="M152.023 44.4328C151.176 46.3405 150.854 52.7625 149.796 52.6738C149.526 52.6435 149.266 52.5565 149.033 52.4186C148.8 52.2806 148.598 52.0948 148.443 51.8736C148.287 51.6523 148.18 51.4006 148.129 51.135C148.079 50.8695 148.085 50.5963 148.148 50.3335C148.148 48.9248 149.139 43.6785 148.916 42.1812C148.66 41.8152 147.881 41.4491 147.714 40.9057C147.531 40.2118 147.619 39.4748 147.959 38.8426C148.623 38.6664 149.21 38.2765 149.629 37.7335C150.019 36.3249 149.918 30.7125 149.985 28.4831C150.114 26.7077 150.137 24.9262 150.052 23.1481C150.202 22.1926 150.633 21.3029 151.291 20.592C151.949 19.8811 152.804 19.381 153.748 19.1551C154.772 18.8002 158.658 18.9998 162.209 20.6968C164.201 21.8886 166.092 23.2388 167.865 24.7342C169.179 26.6087 168.31 29.1708 167.976 30.3465C167.642 31.5222 162.911 34.2951 160.851 35.4043C158.825 36.9016 154.271 37.5117 154.661 39.0201C155.051 40.7171 158.146 43.4567 159.482 44.5659C161.423 45.9701 163.282 47.4847 165.048 49.1023C165.734 49.2819 166.332 49.7037 166.729 50.2891C167.52 50.3446 167.843 51.0766 168.243 51.2541C168.856 51.5314 169.635 56.4227 166.885 53.9493C165.449 53.2062 162.354 51.8752 160.673 50.7661C158.658 48.9803 158.903 49.5349 156.398 47.6493C155.072 46.4091 153.603 45.3294 152.023 44.4328ZM159.237 33.5631C160.762 32.5204 160.673 32.4539 162.744 31.0231C166.44 28.1726 162.332 25.8211 159.927 24.8562C158.216 24.3755 156.476 24.005 154.717 23.747C153.436 23.9134 152.49 23.8247 152.078 24.8562C152.078 25.5439 151.611 27.1743 152.535 27.5071C154.038 25.7324 155.641 26.5643 155.084 29.2928C154.142 31.4645 153.649 33.8036 153.637 36.1696C155.541 35.8812 156.543 34.8275 159.237 33.5631Z" fill="#222221"></path><path d="M173.799 52.3188C172.552 52.8623 171.895 52.4075 171.762 51.0876C171.285 48.5531 171.304 45.9508 171.817 43.4234C172.084 40.3288 172.296 38.8204 172.674 35.1269C173.387 33.5408 172.875 31.5776 172.34 31.7994C172.184 30.8431 172.304 29.8623 172.686 28.9711C172.775 28.8824 172.686 28.6938 172.53 28.3389C172.908 27.2297 172.841 26.6529 173.031 26.4644C173.298 26.0984 173.298 26.0984 174.044 23.5584C174.712 21.5065 175.502 20.0535 177.228 20.0646C181.826 16.8924 178.775 24.4457 178.742 25.3552C178.709 26.2647 176.983 31.2337 177.228 31.8216C176.905 33.9623 176.27 35.9255 176.115 37.689C175.636 42.1257 175.113 44.7987 175.001 47.0392C174.919 48.2711 175.063 49.5075 175.424 50.6883C175.324 51.6422 174.589 51.1875 173.799 52.3188Z" fill="#222221"></path><path d="M39.8009 23.4033C39.0772 21.7173 34.5683 25.7325 34.6573 24.8452C34.7464 23.9579 34.6573 16.3491 34.6573 16.3491C37.0621 15.5505 38.4315 14.1307 37.9973 13.3876C37.5631 12.6445 34.6573 15.0735 34.6573 14.3526C34.6573 13.6316 34.4904 8.0193 34.5683 7.06543C34.6462 6.11156 36.1715 6.49975 36.2605 5.70116C36.3496 4.90257 34.8911 5.05786 34.8911 5.05786C34.8911 5.05786 35.1249 3.69358 34.3234 3.85996C33.5218 4.02633 33.9225 5.70116 33.9225 5.70116C32.3973 6.81031 28.1334 7.86402 28.1334 7.86402C27.4746 6.22897 26.6383 4.67059 25.6395 3.21666C28.4343 2.83803 31.119 1.88225 33.5218 0.4105C19.9394 -1.75235 0.233803 5.14658 0.233803 5.14658C-0.166988 7.46471 22.0213 4.18162 23.3127 4.18162C24.6041 4.18162 26.3632 7.37598 26.1294 8.09694C25.8956 8.81789 12.2909 8.58496 6.51286 8.75133C0.734775 8.91771 0.879502 12.0234 1.60315 12.2674C2.3268 12.5114 3.61824 12.1121 5.3884 11.1582C7.15856 10.2043 26.2073 9.94922 27.1759 10.5925C28.1445 11.2358 28.0554 16.4489 28.0554 16.4489C28.0554 16.4489 21.1418 16.6818 19.7724 16.2825C18.403 15.8832 17.9243 14.3637 15.3191 14.2749C12.714 14.1862 11.9792 16.2825 9.20708 16.4932C6.43494 16.704 5.66673 18.1791 5.66673 18.1791L29.2244 18.0128V27.1411C27.3874 27.9397 14.7514 28.1837 12.0238 27.9397C9.29614 27.6957 9.93073 29.1487 9.93073 29.1487C10.1645 31.1452 29.2244 29.0711 29.2244 29.0711V35.6372C25.2053 35.1492 17.4901 39.1644 16.7553 39.1644C16.0205 39.1644 14.0277 34.8276 14.0277 34.8276C11.9458 29.6256 11.8568 32.5538 11.8568 32.5538C13.1816 38.6763 18.6925 48.082 18.6925 48.082L18.7816 48.326C16.6885 49.7679 15.4416 51.5314 16.0428 51.8531C16.644 52.1747 19.661 49.5239 19.661 49.5239C27.2984 61.8577 30.9945 61.4584 30.9945 61.4584C32.1078 59.2401 32.8426 45.0429 32.8426 45.0429C36.7058 45.0429 38.7877 44.5659 38.7877 43.6786C38.7877 42.7913 33.4104 43.0464 33.4104 43.0464C33.7333 41.3605 34.045 36.6244 34.045 36.6244C36.0601 36.2362 39.1885 36.9461 39.1217 35.5152C39.0549 34.0844 34.3679 35.4265 34.4458 34.7832C34.5237 34.1399 34.5349 27.0968 34.5349 27.0968C36.8172 26.6864 40.5134 25.0892 39.8009 23.4033ZM28.5787 9.82721C30.038 9.51989 31.4655 9.07802 32.8426 8.50732L32.7536 15.3952C31.785 15.0735 29.4137 16.1938 29.4137 16.1938C29.7944 14.0364 29.503 11.8147 28.5787 9.82721ZM32.8204 25.5994C32.1547 25.9207 31.446 26.1449 30.7162 26.2649L30.6606 17.7909C31.3802 17.695 32.0863 17.5163 32.7647 17.2586L32.8204 25.5994ZM29.7142 59.0404C28.7457 58.8075 22.0658 48.7142 22.0658 48.7142C26.7306 45.5864 30.3488 44.9542 30.9723 45.1871C31.5957 45.42 30.7051 59.2844 29.7476 59.0404H29.7142ZM21.0082 47.1724C20.407 46.3849 17.3342 40.8059 17.3342 40.8059C23.8471 37.7446 28.3003 37.5561 28.8459 37.6226C29.3914 37.6892 29.2021 41.4603 29.3914 42.1258C29.5807 42.7913 30.783 42.1812 30.783 42.1812C30.2932 35.2157 31.8073 37.2011 31.8073 37.2011L31.863 43.3903C26.4634 43.1684 21.0416 47.1724 21.0416 47.1724H21.0082ZM32.709 34.9163L30.8387 35.0938C30.8387 35.0938 30.783 29.0267 30.783 28.5498C31.4703 28.4848 32.1409 28.3009 32.7647 28.0062C33.2212 27.6402 32.7424 34.9163 32.7424 34.9163H32.709Z" fill="white"></path><path d="M47.2934 52.5295C46.9372 52.5295 46.6032 51.8419 46.6032 51.8419C46.021 51.88 45.4425 51.7257 44.9573 51.4028C44.4722 51.0799 44.1076 50.6065 43.9201 50.0561C46.0687 47.5494 46.4028 48.2371 47.0707 47.9154C46.958 44.9567 47.0176 41.994 47.2489 39.0422C47.4827 37.1677 46.3805 36.8239 45.3451 36.4801C45.2067 36.2074 45.1245 35.9099 45.1034 35.6051C45.0824 35.3003 45.123 34.9943 45.2227 34.7054C45.9463 33.9734 46.8704 33.9845 47.6052 33.2524C48.4736 30.3353 48.2286 23.8246 50.1435 23.27C50.2548 22.6267 51.4683 21.817 51.2568 21.4954C51.2568 21.1293 50.2437 21.4954 49.5423 21.4954C48.1618 21.6728 45.7237 21.9834 45.3674 21.9834C44.1428 17.3693 54.5968 17.325 57.3466 16.97C58.4902 16.7681 59.6656 16.8403 60.7756 17.1808C62.0792 17.1524 63.3606 17.5199 64.4495 18.2344C65.162 18.2344 66.2197 19.7096 66.6761 20.2975C66.5374 20.7908 66.5374 21.3126 66.6761 21.8059C66.6761 23.8579 64.8169 26.3535 63.3362 27.263C62.4121 28.4831 60.0519 29.4813 58.2038 30.8788C56.3109 31.8971 54.4918 33.046 52.7597 34.3172C51.6464 36.5355 59.8961 37.6447 62.6905 40.1625C67.6893 45.5197 60.8424 47.4385 59.1056 48.1706C57.6583 49.2021 51.2568 50.8658 49.5535 50.4998C49.5535 51.2207 49.0636 51.9528 49.0413 52.6404C48.8013 52.4359 48.5012 52.3145 48.186 52.2945C47.8708 52.2745 47.5575 52.357 47.2934 52.5295ZM52.5928 30.9676C53.7061 30.9676 58.1594 28.1281 59.9072 26.7195C60.6866 25.7213 65.8189 20.963 54.697 21.085C54.3741 21.5397 52.6596 24.1795 53.7061 26.1427C53.1948 26.826 52.8318 27.6079 52.6402 28.4385C52.4485 29.2691 52.4324 30.1304 52.5928 30.9676ZM59.7402 42.7246C59.8516 42.0369 57.1574 40.6172 54.7526 39.8741C51.1678 38.8536 51.9916 38.0772 51.2679 38.4432C50.6111 39.6744 49.8429 46.4181 49.8207 47.139C50.3216 46.9616 52.1252 46.6954 53.5502 46.2961C54.6814 45.8682 55.7637 45.3216 56.7788 44.6656C59.1279 44.0556 59.64 43.4123 59.7402 42.6913V42.7246Z" fill="white"></path><path d="M67.5223 48.104C67.3694 49.458 66.9251 50.7632 66.2197 51.9306C63.3474 53.6941 64.1601 49.9563 64.9617 48.2704C64.9605 47.5775 65.1616 46.8993 65.5406 46.3183C65.5963 44.588 66.6539 42.9021 66.6539 41.8816C65.7076 42.048 65.2845 41.6931 65.3959 40.9611C65.5072 40.229 65.8635 40.3732 65.5295 39.5524C66.0193 37.6779 66.5314 36.7241 68.4352 36.5466C68.8393 35.352 69.3459 34.1942 69.9493 33.0861C70.7843 30.2244 73.0777 22.7598 74.4804 21.7616C75.115 21.0739 73.7457 21.3512 74.3135 19.8871C74.7477 18.8445 75.36 19.0331 76.0614 18.8445C76.7628 18.656 77.1747 17.9017 77.2972 17.1697C78.2323 16.9922 79.8021 14.8626 81.2383 15.4948C82.4963 16.0494 80.7929 18.4119 80.6816 19.3214C81.639 21.1072 83.7432 20.2975 84.0215 22.4382C84.4695 24.3705 84.5301 26.372 84.1997 28.3278C84.8899 28.8713 84.4334 32.1544 84.3666 34.295C85.3686 34.9383 85.48 36.0808 84.0327 36.8017C84.0327 37.8554 83.387 43.5454 83.2088 43.8227C83.0659 45.47 82.7677 47.1002 82.3182 48.6919C82.4518 49.8787 80.0916 51.6533 80.0248 50.1449C79.958 48.6364 80.4589 47.0947 80.2697 44.9429C80.5546 44.1196 80.5779 43.2288 80.3365 42.3919C80.3365 40.9389 80.4589 38.5653 80.3921 37.7445C80.1249 37.5559 78.377 38.4655 77.0522 38.3656C76.5178 38.4544 75.7942 38.9535 75.2264 38.9535C73.2336 39.3972 71.7306 40.717 70.2276 40.6616C69.8953 42.0332 69.3387 43.3411 68.5799 44.5325C68.2348 46.3294 67.9676 47.8267 67.5223 48.104ZM78.121 35.6593C78.8834 35.3099 79.7219 35.1572 80.5591 35.2156C80.7373 35.3043 80.8486 34.4392 80.882 33.3412C80.6371 32.476 80.6816 31.2449 81.0379 31.0674C80.6927 30.9787 80.3921 28.7382 80.882 27.4626C80.4478 27.4626 79.7687 24.723 78.0097 24.5345C77.531 24.5345 77.0634 25.3442 76.6069 25.9431C76.4733 27.2186 75.4936 28.4498 74.6808 29.9471C74.4875 30.8152 74.1806 31.6542 73.768 32.4427C73.6455 33.4077 72.2761 34.8496 72.2538 35.9033C72.6769 36.3692 76.3174 35.4597 78.121 35.6593Z" fill="white"></path><path d="M91.5809 42.6913C90.7348 44.6102 90.4676 51.0322 89.3543 50.9323C89.0852 50.9035 88.8252 50.8179 88.592 50.6811C88.3587 50.5443 88.1574 50.3596 88.0015 50.1391C87.8455 49.9187 87.7386 49.6677 87.6877 49.4028C87.6369 49.1379 87.6433 48.8653 87.7066 48.6031C87.7066 47.1945 88.6974 41.9482 88.4747 40.4508C88.2298 40.0848 87.4394 39.7077 87.2835 39.1642C87.0968 38.4755 87.1804 37.7418 87.5173 37.1123C88.1799 36.9393 88.7644 36.5485 89.1761 36.0031C89.5769 34.5945 89.4767 28.9822 89.5435 26.7528C89.6727 24.9774 89.695 23.1958 89.6103 21.4177C89.7572 20.4611 90.1874 19.5699 90.846 18.8585C91.5045 18.1471 92.3613 17.6479 93.3065 17.4248C94.3308 17.0588 98.2051 17.2584 101.768 18.9665C103.754 20.1518 105.642 21.4945 107.412 22.9816C108.715 24.8561 107.846 27.4183 107.501 28.5829C107.156 29.7475 102.447 32.5758 100.343 33.6185C98.3164 35.1158 93.7519 35.7258 94.1527 37.2343C94.5423 38.9202 97.6373 41.6709 98.9733 42.78C100.915 44.1882 102.773 45.7066 104.54 47.3276C105.231 47.5029 105.833 47.9253 106.232 48.5144C107.023 48.5698 107.345 49.2908 107.746 49.4794C108.358 49.7566 109.138 54.6369 106.399 52.1635C104.952 51.4204 101.857 50.0894 100.176 48.9913C98.1606 47.2056 98.4055 47.7491 95.9005 45.8746C94.5931 44.6457 93.143 43.5771 91.5809 42.6913ZM98.784 31.8216C100.32 30.7901 100.231 30.7124 102.302 29.2927C106.009 26.4311 101.879 24.0908 99.4854 23.1258C97.7731 22.6499 96.0331 22.2795 94.2751 22.0167C92.9837 22.1941 92.1153 22.1054 91.6366 23.1258C91.6366 23.8135 91.1801 25.4551 92.093 25.7656C93.596 24.0021 95.2103 24.8228 94.6425 27.5624C93.7049 29.7357 93.2127 32.0738 93.1952 34.4392C95.1657 34.1397 96.1009 33.0971 98.784 31.8216Z" fill="white"></path><path d="M115.283 49.6347C114.905 50.3667 114.292 50.1782 113.88 50.8659C112.767 51.0433 112.856 49.8122 112.767 48.5366C112.711 47.4829 112.767 46.1631 112.767 45.431C112.479 44.5048 112.51 43.509 112.856 42.6027C112.765 41.1745 112.81 39.741 112.99 38.3213C113.435 35.1381 113.97 29.071 114.437 27.8842C114.604 25.3331 115.127 23.8801 115.094 22.0167C114.998 21.8434 114.853 21.7024 114.676 21.6116C114.5 21.5208 114.3 21.4842 114.103 21.5065C113.551 21.8267 112.913 21.9664 112.277 21.9058C111.08 22.1268 109.917 22.4996 108.815 23.015C107.434 23.381 107.089 23.1037 107.802 21.3291C107.825 20.3109 108.125 19.3181 108.67 18.4564C109.427 16.959 111.888 17.3472 113.045 16.9701C113.702 17.1587 113.602 17.2474 115.083 16.8037C116.754 16.6128 118.443 16.6501 120.104 16.9146C121.128 16.5486 122.475 17.2918 123.533 17.2918C124.167 18.0238 123.744 18.9777 123.8 20.0757C123.878 20.4861 123.923 21.8504 123.488 21.5842C122.418 21.499 121.359 21.3096 120.327 21.0185C119.102 20.9187 117.989 21.0185 117.9 21.5509C118.334 21.8967 118.695 22.3265 118.959 22.8144C119.223 23.3023 119.385 23.8384 119.436 24.3903C118.899 28.2052 118.095 31.9781 117.031 35.6815C116.763 38.1087 116.324 40.5141 115.717 42.8799C115.283 46.5845 115.495 48.5477 115.283 49.6347Z" fill="white"></path><path d="M147.168 28.9489C147.681 38.1993 140.088 44.8209 137.149 47.5051C136.486 47.9773 135.867 48.5081 135.301 49.0912C133.386 49.6236 131.682 50.5774 129.734 50.5664C124.936 50.3223 123.911 44.6213 125.014 38.8315C125.014 38.3767 125.381 38.1882 125.381 37.922C125.463 37.3927 125.463 36.854 125.381 36.3248C125.303 36.0475 125.025 36.3248 125.014 36.5023C124.802 37.7334 123.622 37.5449 123.644 36.957C123.845 35.9588 123.644 34.6278 124.624 33.5408C126.171 30.3576 127.018 29.9915 128.12 25.8987C128.97 23.7373 129.975 21.6394 131.126 19.6209C131.938 19.0774 132.117 18.8889 132.395 18.7114C133.397 18.8113 133.452 19.998 132.395 21.8614C131.905 23.5473 132.851 22.6378 133.041 22.2718C133.641 21.519 134.433 20.9406 135.334 20.597C135.617 20.1031 136.023 19.6899 136.512 19.3967C137.001 19.1035 137.558 18.9401 138.128 18.9222C138.563 18.9222 138.841 18.4674 139.242 18.3787C141.658 18.7558 142.815 19.9426 144.563 21.9169C146.039 23.9911 146.938 26.4171 147.168 28.9489ZM129.033 42.6803C130.146 48.226 133.697 47.3942 137.505 43.856C142.303 39.5081 141.58 37.6336 142.582 36.4912C144.452 31.256 142.582 23.503 137.271 23.6583C133.085 24.6898 132.439 26.0097 130.736 28.2391C130.369 30.3797 128.843 34.1952 129.01 37.3008C128.833 39.09 128.84 40.8926 129.033 42.6803Z" fill="white"></path><path d="M152.256 42.9687C151.41 44.8764 151.143 51.2984 150.03 51.2097C149.759 51.1809 149.498 51.0949 149.263 50.9576C149.029 50.8202 148.826 50.6347 148.669 50.4132C148.512 50.1918 148.404 49.9395 148.353 49.6733C148.302 49.4071 148.308 49.1331 148.371 48.8694C148.371 47.4608 149.362 42.2145 149.139 40.7171C148.883 40.3511 148.104 39.985 147.948 39.4305C147.762 38.7417 147.846 38.0084 148.182 37.3785C148.846 37.2023 149.433 36.8124 149.852 36.2694C150.241 34.8607 150.141 29.2484 150.208 27.019C150.337 25.2436 150.359 23.4621 150.275 21.684C150.424 20.7285 150.855 19.8388 151.514 19.1279C152.172 18.4169 153.027 17.9168 153.971 17.691C154.995 17.3361 158.88 17.5358 162.443 19.2328C164.429 20.4276 166.316 21.7776 168.088 23.2701C169.412 25.1445 168.533 27.7067 168.199 28.8824C167.865 30.0581 163.133 32.8643 161.029 33.9069C159.003 35.4042 154.449 36.0143 154.839 37.5227C155.229 39.2197 158.324 41.9593 159.66 43.0685C161.601 44.4727 163.46 45.9873 165.226 47.6049C165.913 47.7846 166.51 48.2063 166.907 48.7917C167.698 48.8472 168.021 49.5792 168.422 49.7567C169.034 50.034 169.824 54.9254 167.063 52.4519C165.627 51.7088 162.532 50.3778 160.862 49.2687C158.836 47.4829 159.081 48.0375 156.587 46.1519C155.27 44.9298 153.817 43.8618 152.256 42.9687ZM159.471 32.0989C160.996 31.0563 160.907 30.9898 162.977 29.559C166.674 26.7085 162.566 24.3571 160.161 23.3921C158.45 22.9114 156.709 22.541 154.951 22.2829C153.67 22.4604 152.791 22.3606 152.312 23.3921C152.312 24.0798 151.844 25.7213 152.768 26.043C154.271 24.2683 155.886 25.1002 155.318 27.8287C154.375 30.0004 153.883 32.3395 153.871 34.7055C155.785 34.406 156.776 33.3634 159.471 32.0768V32.0989Z" fill="white"></path><path d="M174.044 50.8548C172.786 51.3983 172.14 50.9436 171.995 49.6237C171.506 47.0922 171.506 44.4909 171.995 41.9594C172.263 38.8649 172.485 37.3564 172.853 33.6629C173.565 32.0768 173.053 30.1136 172.519 30.3355C172.362 29.3792 172.482 28.3983 172.864 27.5071C172.953 27.4184 172.864 27.2409 172.708 26.8749C173.086 25.7658 173.02 25.189 173.209 25.0004C173.476 24.6344 173.476 24.6344 174.222 22.0945C174.89 20.0425 175.68 18.5895 177.406 18.5895C182.004 15.4284 178.953 23.0261 178.92 23.8913C178.887 24.7564 177.161 29.7698 177.406 30.3577C177.083 32.4984 176.449 34.4504 176.293 36.2362C175.803 40.6063 175.28 43.3348 175.179 45.5753C175.089 46.8066 175.229 48.0439 175.591 49.2244C175.513 50.1783 174.823 49.7235 174.044 50.8548Z" fill="white"></path></g><defs><clipPath id="clip0_56_146"><rect width="180" height="63" fill="white"></rect></clipPath></defs></svg> 