<?xml version="1.0" encoding="UTF-8"?> <svg xmlns="http://www.w3.org/2000/svg" width="200" height="70" viewBox="0 0 200 70" fill="none"><g clip-path="url(#clip0_4_8)"><path d="M43.9792 27.6357C43.169 25.7714 38.1645 30.2214 38.2434 29.2357C38.3223 28.25 38.2434 19.8072 38.2434 19.8072C40.9249 18.9214 42.4449 17.3143 41.9932 16.5143C41.5415 15.7143 38.2434 18.3786 38.2434 17.5786C38.2434 16.7786 38.0642 10.55 38.1502 9.47857C38.2362 8.40714 39.9426 8.85714 40.0287 7.96429C40.1147 7.07143 38.5087 7.25 38.5087 7.25C38.5087 7.25 38.774 5.73572 37.8849 5.91429C36.9959 6.09286 37.4332 7.95714 37.4332 7.95714C35.734 9.2 30.9805 10.3643 30.9805 10.3643C30.2461 8.55007 29.3157 6.82084 28.2058 5.20715C31.3101 4.78955 34.2923 3.72866 36.96 2.09286C21.9036 -0.307142 -0.0215113 7.34286 -0.0215113 7.34286C-0.473205 9.92858 24.1835 6.27858 25.6175 6.27858C27.0514 6.27858 29.0088 9.84999 28.7507 10.6357C28.4926 11.4214 13.3787 11.1714 6.94748 11.35C0.516217 11.5286 0.695462 15 1.49847 15.2643C2.30148 15.5286 3.73543 15.0857 5.69277 14.0214C7.65011 12.9572 28.8295 12.6857 29.905 13.3929C30.9805 14.1 30.8944 19.8929 30.8944 19.8929C30.8944 19.8929 23.2085 20.1572 21.6885 19.7143C20.1685 19.2714 19.6308 17.5714 16.6697 17.4857C13.7085 17.4 13.0059 19.7143 9.8799 19.9857C6.7539 20.2572 5.97956 21.85 5.97956 21.85L32.1563 21.6714V31.8214C30.0986 32.7071 16.0746 32.9714 13.0346 32.7072C9.99462 32.4429 10.7116 34.0429 10.7116 34.0429C10.9769 36.2643 32.1563 33.9572 32.1563 33.9572V41.2572C27.6895 40.7214 19.1074 45.1714 18.3044 45.1714C17.5013 45.1714 15.3002 40.3643 15.3002 40.3643C12.9772 34.5786 12.884 37.8286 12.884 37.8286C14.361 44.6357 20.4768 55.1357 20.4768 55.1357L20.57 55.4072C18.247 57.0072 16.8202 58.9786 17.53 59.3214C18.2398 59.6643 21.5522 56.7357 21.5522 56.7357C30.0269 70.4429 34.1351 70.0214 34.1351 70.0214C35.3827 67.5286 36.1857 51.7714 36.1857 51.7714C40.4875 51.7714 42.7962 51.25 42.7962 50.2571C42.7962 49.2643 36.8095 49.5429 36.8095 49.5429C37.1679 47.6714 37.5264 42.4 37.5264 42.4C39.7634 41.9571 43.2622 42.7571 43.1547 41.1571C43.0471 39.5571 37.8849 41.0714 37.971 40.3571C38.057 39.6429 38.0642 31.7857 38.0642 31.7857C40.6524 31.2857 44.7607 29.5072 43.9792 27.6357ZM31.5038 12.55C33.1287 12.2118 34.7179 11.7215 36.2502 11.0857L36.157 18.7357C35.0815 18.3786 32.4503 19.6286 32.4503 19.6286C32.8689 17.2268 32.5334 14.7548 31.4895 12.55H31.5038ZM36.2646 30.0786C35.5215 30.4276 34.7319 30.6682 33.9201 30.7929L33.8555 21.3786C34.6579 21.2705 35.4447 21.0691 36.2 20.7786L36.2646 30.0786ZM32.8087 67.2214C31.7189 66.9714 24.3054 55.7357 24.3054 55.7357C29.482 52.2643 33.5042 51.5571 34.214 51.8214C34.9238 52.0857 33.8627 67.5072 32.7944 67.2357L32.8087 67.2214ZM23.1224 54.05C22.4556 53.1786 19.0357 46.9714 19.0357 46.9714C26.2771 43.5714 31.2242 43.3643 31.8265 43.4C32.4287 43.4357 32.2352 47.6857 32.4359 48.4C32.6367 49.1143 33.9774 48.4643 33.9774 48.4643C33.4397 40.7214 35.1174 42.9357 35.1174 42.9357L35.1819 49.8072C29.1522 49.6429 23.1224 54.05 23.1224 54.05ZM36.0925 40.4286L34.0133 40.6286C34.0133 40.6286 33.9487 33.8929 33.9487 33.3572C33.9487 33.3572 35.691 33.15 36.157 32.75C36.623 32.35 36.0925 40.4286 36.0925 40.4286Z" fill="#322B80"></path><path d="M52.332 60.0214C51.9376 60.0214 51.5648 59.2571 51.5648 59.2571C50.918 59.2969 50.2761 59.1242 49.7373 58.7655C49.1986 58.4068 48.7928 57.882 48.5822 57.2714C50.9697 54.4929 51.3425 55.2571 52.0882 54.9C51.7799 52.0429 52.2316 46.6 52.2818 44.9714C52.5399 42.9 51.321 42.5357 50.1309 42.1143C49.8248 41.4986 49.7759 40.7873 49.9946 40.1357C50.8048 39.3286 51.8301 39.3357 52.6474 38.5286C53.6153 35.2857 53.3644 28.05 55.4723 27.4C55.5942 26.6857 56.9063 25.7857 56.7485 25.4286C56.7485 25.0214 55.6229 25.4286 54.8485 25.4286C53.3214 25.6214 50.6112 25.9643 50.2169 25.9643C48.8546 20.8357 60.4696 20.7857 63.5168 20.4C64.7877 20.1695 66.0956 20.2455 67.3311 20.6214C68.7828 20.5927 70.2086 21.0064 71.4178 21.8072C72.1993 21.8072 73.3823 23.4357 73.8484 24.0929C73.6797 24.6352 73.6624 25.2129 73.7982 25.7643C73.7982 28.0429 71.7405 30.8214 70.0914 31.8214C69.0661 33.1929 66.4348 34.3429 64.3556 35.85C62.3051 37.1072 59.8172 38.3643 58.3115 39.6714C57.107 42.15 66.2413 43.3572 69.3386 46.1572C74.9023 52.1143 67.2952 54.2571 65.3522 55.0571C63.7534 56.2143 56.6481 58.0572 54.741 57.6429C54.741 58.45 54.1961 59.2572 54.1818 60.0214C53.9095 59.8353 53.587 59.7357 53.2569 59.7357C52.9267 59.7357 52.6042 59.8353 52.332 60.0214ZM58.1825 36.0357C59.3583 36.0357 64.3054 32.8714 66.313 31.3071C67.1733 30.1929 72.8733 24.8786 60.5198 25.05C60.1613 25.5572 58.2613 28.4857 59.4157 30.6714C58.6127 31.3572 57.7021 34.0857 58.1825 36.0143V36.0357ZM66.1265 49.0857C66.2484 48.3286 63.2587 46.75 60.5843 45.9214C56.598 44.7929 57.5085 43.9357 56.7055 44.3357C55.9885 45.7 55.1282 53.1929 55.1067 54C55.6516 53.8 57.6591 53.5072 59.2436 53.0643C60.5005 52.5895 61.7024 51.9812 62.8285 51.25C65.4454 50.5786 66.0047 49.8786 66.1265 49.0643V49.0857Z" fill="#322B80"></path><path d="M74.8091 55.0857C74.6436 56.5999 74.1547 58.0612 73.3752 59.3714C70.1846 61.3286 71.0952 57.1786 71.9412 55.3071C71.9454 54.5338 72.1718 53.7778 72.5937 53.1286C72.651 51.2072 73.8268 49.3429 73.8699 48.1786C72.8303 48.3714 72.357 47.9643 72.4789 47.1571C72.6008 46.35 72.9952 46.5 72.6152 45.5929C73.1744 43.5143 73.7408 42.45 75.8559 42.2572C76.1642 41.65 76.7163 39.5786 77.5336 38.4143C78.4657 35.2214 81.0109 26.9286 82.5524 25.8214C83.2694 25.0643 81.7422 25.3643 82.3732 23.75C82.8464 22.5857 83.5275 22.7929 84.3162 22.5857C84.9543 22.4929 85.5709 21.5357 85.6928 20.7214C86.7252 20.5286 88.4675 18.1572 90.0592 18.8643C91.4931 19.4786 89.5716 22.1071 89.4426 23.1143C90.5108 25.1 92.841 24.2 93.1637 26.5786C93.6695 28.7217 93.7377 30.9443 93.3644 33.1143C94.1316 33.7286 93.6297 37.4 93.558 39.75C94.6621 40.4643 94.7195 41.7357 93.1852 42.5357C93.0114 45.1495 92.7051 47.7528 92.2674 50.3357C92.1199 52.1625 91.7957 53.9709 91.2995 55.7357C91.4572 57.0572 88.8044 59.0143 88.7543 57.3429C88.7041 55.6714 89.2418 53.9572 89.0195 51.5714C89.3477 50.6515 89.3777 49.6522 89.1056 48.7143C89.1486 47.0929 89.2346 44.4286 89.1629 43.55C88.869 43.3429 86.9331 44.35 85.5135 44.2643C84.9256 44.3572 84.1226 44.9143 83.4845 44.9143C81.269 45.4072 79.6057 46.8643 77.9351 46.8143C77.5612 48.3328 76.9413 49.7804 76.0997 51.1C75.5619 53.1143 75.268 54.7786 74.8091 55.0857ZM86.589 41.2572C87.433 40.8652 88.363 40.6931 89.292 40.7572C89.4856 40.8643 89.6146 39.9 89.6505 38.6857C89.378 37.7214 89.4282 36.3571 89.8154 36.15C89.4282 36.05 89.0984 33.5643 89.6433 32.15C89.1629 32.1 88.4603 29.1072 86.4599 28.8929C85.915 28.8929 85.406 29.8 84.8969 30.4643C84.7535 31.8929 83.6853 33.2429 82.746 34.9072C82.5312 35.873 82.1913 36.807 81.7351 37.6857C81.606 38.75 80.086 40.3643 80.0502 41.5286C80.4947 42.0429 84.5456 41.0429 86.5531 41.2572H86.589Z" fill="#322B80"></path><path d="M101.509 49.0714C100.556 51.2143 100.204 58.3571 99.0285 58.2286C97.5945 58.1214 97.0568 56.85 97.2002 55.6357C97.2432 54.0643 98.29 48.2429 98.0534 46.5786C97.7738 46.1714 96.9063 45.7571 96.7198 45.15C96.5177 44.3843 96.6124 43.5707 96.9851 42.8714C97.7263 42.6721 98.3782 42.2291 98.8349 41.6143C99.2794 40.05 99.1647 33.8143 99.2364 31.3357C99.379 29.3604 99.4054 27.3784 99.3153 25.4C99.5949 22.8214 101.839 21.3643 103.416 20.9643C104.556 20.5643 108.865 20.7857 112.823 22.6786C115.033 24.0091 117.135 25.5088 119.111 27.1643C120.545 29.25 119.598 32.1643 119.218 33.3929C118.839 34.6214 113.605 37.8286 111.267 38.9857C109.002 40.65 103.94 41.3357 104.384 43.0071C104.814 44.8786 108.263 47.8857 109.74 49.1072C111.887 50.6734 113.946 52.3569 115.906 54.15C116.673 54.3523 117.34 54.8243 117.785 55.4786C118.659 55.5357 118.982 56.3429 119.469 56.55C120.143 56.8572 121.011 62.2643 117.964 59.5357C116.365 58.7143 112.945 57.2286 111.052 56.0072C108.815 54.0214 109.08 54.6286 106.306 52.5429C104.865 51.45 104.062 50.45 101.509 49.0714ZM109.503 37C111.217 35.85 111.117 35.7429 113.418 34.1857C117.526 31.0071 112.952 28.4072 110.285 27.3286C109.417 26.9214 106.105 26.4 104.492 26.0929C103.058 26.2857 102.09 26.1786 101.559 27.2857C101.559 28.05 101.05 29.8786 102.068 30.2286C103.739 28.2643 105.531 29.1857 104.901 32.2214C103.858 34.6341 103.312 37.2305 103.294 39.8571C105.424 39.5714 106.528 38.4071 109.503 37Z" fill="#322B80"></path><path d="M127.865 56.7857C127.442 57.5929 126.761 57.3929 126.302 58.15C125.119 58.3429 125.162 56.9786 125.105 55.5643C125.04 54.4 125.105 52.9214 125.105 52.1143C124.783 51.0876 124.819 49.9828 125.205 48.9786C125.255 47.15 124.997 45.8857 125.349 44.2143C125.843 40.6428 126.431 33.9357 126.962 32.6214C127.141 29.7643 127.729 28.1643 127.679 26.0929C127.572 25.9001 127.41 25.7434 127.213 25.6429C127.016 25.5424 126.794 25.5025 126.575 25.5286C125.966 25.8901 125.258 26.0478 124.553 25.9786C123.222 26.2117 121.926 26.6101 120.695 27.1643C119.161 27.5643 118.781 27.2571 119.57 25.2857C119.602 24.1559 119.939 23.0557 120.545 22.1C121.377 20.4357 124.13 20.85 125.399 20.45C126.116 20.6571 126.023 20.7571 127.664 20.2571C129.521 20.0457 131.398 20.089 133.243 20.3857C134.383 19.9857 135.881 20.8 137.057 20.8071C137.774 21.6214 137.293 22.6786 137.358 23.8929C137.437 24.3571 137.494 25.8714 137.007 25.5714C135.821 25.4718 134.648 25.2638 133.501 24.95C132.131 24.8357 130.898 24.95 130.79 25.5357C131.276 25.9181 131.678 26.3943 131.974 26.9356C132.27 27.4769 132.452 28.0722 132.511 28.6857C131.913 32.9264 131.017 37.12 129.83 41.2357C129.113 45.6929 129.077 46.95 128.396 49.2357C127.865 53.3928 128.073 55.5786 127.865 56.7857Z" fill="#322B80"></path><path d="M163.262 33.8C163.836 44.0786 155.376 51.4429 152.156 54.4143C151.425 54.9447 150.739 55.5348 150.106 56.1786C147.955 56.7786 146.084 57.8286 143.976 57.8286C138.648 57.55 137.523 51.2143 138.735 44.7786C138.735 44.2714 139.143 44.0643 139.15 43.7714C139.227 43.1822 139.213 42.5848 139.107 42C139.014 41.6929 138.713 42 138.706 42.2C138.469 43.5643 137.157 43.3571 137.179 42.7C137.401 41.5857 137.179 40.1143 138.268 38.9C139.989 35.3643 140.928 34.9643 142.147 30.4072C143.097 28.0089 144.214 25.6795 145.488 23.4357C146.385 22.8286 146.593 22.6214 146.922 22.4286C148.041 22.5357 148.098 23.8572 146.922 25.9214C146.377 27.7929 147.439 26.7857 147.639 26.3857C148.156 25.5286 149.202 25.0214 150.192 24.5214C151.375 22.75 152.457 22.8571 153.289 22.6571C153.777 22.6571 154.085 22.15 154.58 22.0571C157.261 22.4714 158.552 23.8 160.495 25.9857C162.093 28.3015 163.048 30.9975 163.262 33.8ZM143.108 49.0571C144.356 55.1929 148.299 54.2929 152.529 50.3643C157.863 45.5286 157.053 43.4429 158.165 42.1786C160.251 36.3643 158.2 27.75 152.264 27.8929C147.625 29.0357 146.894 30.5 145.008 32.9786C144.599 35.3572 142.9 39.6071 143.094 43.05C143.036 45.15 142.771 47.4286 143.108 49.0571Z" fill="#322B80"></path><path d="M168.926 49.3714C167.98 51.5143 167.621 58.6571 166.453 58.5286C165.019 58.4214 164.481 57.1571 164.617 55.9357C164.66 54.3714 165.714 48.55 165.47 46.8786C165.191 46.4643 164.323 46.0643 164.137 45.45C163.935 44.6843 164.029 43.8707 164.402 43.1714C165.146 42.9725 165.8 42.5296 166.259 41.9143C166.689 40.3429 166.589 34.1143 166.653 31.6357C166.796 29.6628 166.822 27.6832 166.732 25.7071C167.005 23.1214 169.256 21.6643 170.833 21.2714C171.981 20.8714 176.29 21.0929 180.247 22.9786C182.453 24.311 184.553 25.8107 186.528 27.4643C187.962 29.55 187.023 32.4643 186.65 33.7C186.277 34.9357 181.014 38.1286 178.684 39.2857C176.433 40.9429 171.364 41.6286 171.801 43.3071C172.232 45.1857 175.673 48.1929 177.157 49.4072C179.308 50.9718 181.369 52.6554 183.33 54.45C184.095 54.6533 184.759 55.1252 185.202 55.7786C186.076 55.8357 186.399 56.6429 186.887 56.85C187.568 57.1571 188.435 62.5643 185.374 59.8357C183.782 59.0143 180.355 57.5286 178.476 56.3071C176.232 54.3143 176.505 54.9286 173.723 52.8357C172.318 51.7214 171.486 50.7357 168.926 49.3714ZM176.935 37.3C178.634 36.1429 178.534 36.0429 180.828 34.4857C184.944 31.3071 180.376 28.7 177.702 27.6286C176.835 27.2214 173.522 26.7 171.909 26.3857C170.475 26.5857 169.507 26.4786 168.984 27.5929C168.984 28.35 168.467 30.1714 169.486 30.5286C171.163 28.5643 172.949 29.4786 172.318 32.5214C171.276 34.9366 170.732 37.5357 170.719 40.1643C172.834 39.8714 173.945 38.7071 176.935 37.3Z" fill="#322B80"></path><path d="M193.11 58.1429C191.719 58.7429 190.995 58.2429 190.844 56.7643C190.364 53.1143 190.278 52.7143 190.902 48.25C191.196 44.8143 191.439 43.1429 191.862 39.0429C192.651 37.2714 192.07 35.0929 191.482 35.2929C191.296 34.6857 191.482 32.5572 191.87 32.15C191.97 32.05 191.87 31.85 191.697 31.4357C192.113 30.1643 192.034 29.5643 192.242 29.3572C192.543 28.95 192.543 28.95 193.368 26.1214C194.121 23.85 194.996 22.2286 196.917 22.2357C202.015 18.7143 198.631 27.1072 198.602 28.1214C198.573 29.1357 196.645 34.65 196.917 35.3071C196.551 37.6857 195.849 39.8643 195.691 41.8357C195.16 46.6929 194.573 49.7286 194.408 52.2143C194.311 53.5837 194.469 54.9592 194.874 56.2714C194.759 57.3929 193.992 56.8857 193.11 58.1429Z" fill="#322B80"></path><path d="M44.223 26.0071C43.42 24.1429 38.4083 28.5929 38.4872 27.6143C38.566 26.6357 38.4872 18.1786 38.4872 18.1786C41.1615 17.2857 42.6815 15.6857 42.2298 14.8857C41.7781 14.0857 38.4872 16.7571 38.4872 15.95C38.4872 15.1428 38.3079 8.92142 38.3868 7.85713C38.4657 6.79285 40.1792 7.22856 40.2724 6.3357C40.3657 5.44285 38.7525 5.62142 38.7525 5.62142C38.7525 5.62142 39.0106 4.10714 38.1287 4.28571C37.2468 4.46428 37.677 6.32855 37.677 6.32855C35.9778 7.57855 31.2242 8.73571 31.2242 8.73571C30.5048 6.92859 29.5913 5.20428 28.4997 3.59285C31.6028 3.17414 34.5842 2.11594 37.254 0.485701C22.1545 -1.93573 0.243772 5.73571 0.243772 5.73571C-0.207922 8.31428 24.4417 4.66428 25.8756 4.66428C27.3096 4.66428 29.2741 8.23571 29.0088 9.02142C28.7435 9.80714 13.6369 9.55714 7.20559 9.73571C0.774332 9.91428 0.953577 13.3786 1.75659 13.6429C2.5596 13.9071 3.99355 13.4714 5.95806 12.4C7.92257 11.3286 29.0948 11.0643 30.1703 11.7714C31.2457 12.4786 31.1525 18.2714 31.1525 18.2714C31.1525 18.2714 23.4666 18.5428 21.9466 18.0928C20.4266 17.6428 19.896 15.95 16.9278 15.8714C13.9595 15.7929 13.264 18.0928 10.1308 18.3643C6.99767 18.6357 6.20183 20.2357 6.20183 20.2357L32.3786 20.05V30.2C30.328 31.0928 16.304 31.3571 13.264 31.0928C10.2241 30.8286 10.9984 32.4143 10.9984 32.4143C11.2565 34.6429 32.4359 32.3357 32.4359 32.3357V39.6286C27.9692 39.0929 19.387 43.5428 18.584 43.5428C17.781 43.5428 15.5512 38.7357 15.5512 38.7357C13.2282 32.95 13.1421 36.2 13.1421 36.2C14.5761 43.0071 20.7349 53.5071 20.7349 53.5071L20.8281 53.7786C18.4979 55.3786 17.0712 57.35 17.7881 57.6928C18.5051 58.0357 21.8032 55.1143 21.8032 55.1143C30.2922 68.8143 34.4004 68.3714 34.4004 68.3714C35.648 65.8786 36.4581 50.1286 36.4581 50.1286C40.76 50.1286 43.0686 49.6 43.0686 48.6143C43.0686 47.6286 37.0819 47.9 37.0819 47.9C37.4404 46.0286 37.7989 40.7571 37.7989 40.7571C40.0358 40.3214 43.5347 41.1143 43.4343 39.5143C43.3339 37.9143 38.1645 39.4286 38.2434 38.7143C38.3223 38 38.3438 30.1429 38.3438 30.1429C40.9177 29.6571 45.026 27.8786 44.223 26.0071ZM31.7906 10.9214C33.413 10.5826 34.9997 10.0923 36.5298 9.45713L36.4366 17.1071C35.3612 16.7571 32.7299 18 32.7299 18C33.1519 15.6003 32.8241 13.1294 31.7906 10.9214ZM36.5442 28.45C35.8032 28.7977 35.0161 29.0382 34.2068 29.1643L34.1423 19.75C34.9445 19.641 35.7313 19.4397 36.4868 19.15L36.5442 28.45ZM33.0955 65.5928C32.0129 65.3214 24.5994 54.1071 24.5994 54.1071C29.7831 50.6428 33.7982 49.9286 34.5151 50.2C35.2321 50.4714 34.1208 65.8786 33.0597 65.6143L33.0955 65.5928ZM23.3877 52.4214C22.7209 51.55 19.3009 45.3429 19.3009 45.3429C26.5352 41.9429 31.4895 41.7357 32.0918 41.8071C32.694 41.8786 32.4933 46.0928 32.694 46.8071C32.8948 47.5214 34.2427 46.8714 34.2427 46.8714C33.6978 39.1286 35.3755 41.3357 35.3755 41.3357L35.44 48.2071C29.4103 48.0143 23.3877 52.4214 23.3877 52.4214ZM36.3793 38.8071L34.3072 39C34.3072 39 34.2427 32.2643 34.2427 31.7286C35.009 31.6575 35.7566 31.452 36.451 31.1214C36.917 30.7357 36.3793 38.8071 36.3793 38.8071Z" fill="#E3A51A"></path><path d="M52.5829 58.3714C52.1957 58.3714 51.8157 57.6071 51.8157 57.6071C51.1693 57.6501 50.5267 57.4786 49.9884 57.1194C49.4501 56.7601 49.0464 56.2334 48.8403 55.6214C51.2207 52.8428 51.5935 53.6071 52.3391 53.25C52.0308 50.3928 52.4897 44.95 52.5327 43.3214C52.7908 41.25 51.572 40.8928 50.4176 40.4643C50.2631 40.1604 50.1713 39.8286 50.1479 39.4888C50.1245 39.1489 50.1699 38.8078 50.2814 38.4857C51.0844 37.6786 52.1169 37.6786 52.9271 36.8714C53.895 33.6286 53.644 26.3929 55.7519 25.7429C55.8738 25.0286 57.1859 24.1286 57.0353 23.7714C57.0353 23.3643 55.9097 23.7714 55.1282 23.7714C53.601 23.9643 50.8908 24.3071 50.4965 24.3071C49.1343 19.1857 60.7564 19.1286 63.7964 18.7428C65.0697 18.5123 66.3799 18.5882 67.6179 18.9643C69.0672 18.9365 70.4905 19.3502 71.6974 20.15C72.4861 20.15 73.662 21.7786 74.128 22.4357C73.9629 22.9786 73.9455 23.5554 74.0778 24.1071C74.0778 26.3929 72.0201 29.1643 70.371 30.1714C69.3458 31.5357 66.7216 32.6857 64.6711 34.1929C62.6205 35.45 60.1326 36.7071 58.627 38.0143C57.4225 40.4929 66.5567 41.7 69.6541 44.5C75.2106 50.4571 67.6035 52.6 65.6677 53.4C64.0617 54.5571 56.9565 56.4 55.0493 55.9857C55.0493 56.8 54.5116 57.6071 54.4901 58.3714C54.2126 58.1716 53.8789 58.064 53.5365 58.064C53.1941 58.064 52.8604 58.1716 52.5829 58.3714ZM58.4406 34.3857C59.6164 34.3857 64.5564 31.2214 66.5639 29.6643C67.4314 28.55 73.1242 23.2357 60.7708 23.4071C60.4123 23.9071 58.5123 26.8357 59.6738 29.0214C58.8779 29.7286 57.9602 32.4571 58.4478 34.3857H58.4406ZM66.3775 47.4429C66.4994 46.6786 63.5096 45.1 60.8353 44.2714C56.8561 43.15 57.7595 42.2857 56.9636 42.6857C56.2466 44.05 55.3791 51.5429 55.3576 52.35C55.9097 52.15 57.9172 51.8571 59.5017 51.4143C60.7585 50.9394 61.9604 50.3311 63.0866 49.6C65.7035 48.9571 66.2628 48.25 66.3847 47.4429H66.3775Z" fill="#C20E1A"></path><path d="M75.0314 53.4572C74.8643 54.9598 74.3753 56.4091 73.5974 57.7072C70.4069 59.6643 71.3174 55.5143 72.2065 53.6429C72.2129 52.8709 72.4364 52.1161 72.8518 51.4643C72.9091 49.5429 74.0921 47.6786 74.128 46.5143C73.0884 46.7072 72.6152 46.3072 72.737 45.4929C72.8589 44.6786 73.2533 44.8357 72.8804 43.9286C73.4325 41.85 73.9989 40.7857 76.1212 40.5929C76.4223 39.9857 76.9815 37.9143 77.7989 36.75C78.7238 33.5643 81.2762 25.2643 82.8177 24.1643C83.5347 23.4071 82.0075 23.7 82.6385 22.0857C83.1117 20.9215 83.8 21.1286 84.5815 20.9286C85.2267 20.8286 85.8362 19.8714 85.958 19.0572C86.9977 18.8643 88.7327 16.4929 90.3316 17.2C91.7655 17.8214 89.844 20.4429 89.715 21.4857C90.7833 23.4643 93.1134 22.5643 93.4361 24.95C93.9364 27.0916 94.0022 29.3113 93.6297 31.4786C94.3968 32.0929 93.9021 35.7643 93.8233 38.1214C94.9346 38.8357 94.9919 40.1 93.4504 40.9C93.2806 43.5141 92.9743 46.1176 92.5327 48.7C92.3826 50.5328 92.0511 52.3464 91.5433 54.1143C91.6938 55.4357 89.041 57.4 88.9908 55.7286C88.9407 54.0571 89.4784 52.3429 89.2633 49.95C89.5881 49.0294 89.6181 48.0312 89.3493 47.0929C89.3924 45.4786 89.4712 42.8072 89.4067 41.9286C89.1127 41.7215 87.1697 42.7286 85.7573 42.6429C85.1622 42.7429 84.3664 43.2929 83.7283 43.2929C81.5056 43.7857 79.8423 45.25 78.1789 45.1929C77.805 46.7113 77.1851 48.1589 76.3434 49.4786C75.8272 51.4857 75.5261 53.15 75.0314 53.4572ZM86.8112 39.6286C87.6571 39.2429 88.5861 39.0735 89.5142 39.1357C89.7078 39.2357 89.8369 38.2786 89.8799 37.0572C89.6074 36.0929 89.6505 34.7286 90.0448 34.5286C89.6576 34.4214 89.3278 31.9429 89.8727 30.5214C89.3852 30.4714 88.6897 27.4786 86.6822 27.2643C86.1445 27.2643 85.6282 28.1714 85.1192 28.8357C84.983 30.2643 83.9075 31.6143 82.9683 33.2786C82.7507 34.2469 82.4085 35.1832 81.9502 36.0643C81.8211 37.1214 80.3011 38.7357 80.2724 39.9C80.7528 40.4143 84.8037 39.4143 86.8112 39.6286Z" fill="#C20E1A"></path><path d="M101.767 47.4429C100.821 49.5857 100.462 56.7286 99.2866 56.6C97.8527 56.4928 97.3221 55.2214 97.4583 54.0071C97.5013 52.4428 98.5553 46.6214 98.3187 44.95C98.0319 44.5428 97.1644 44.1357 96.9851 43.5214C96.7793 42.7559 96.8742 41.9411 97.2504 41.2428C97.99 41.0441 98.6397 40.6008 99.093 39.9857C99.5376 38.4214 99.4228 32.1857 99.5017 29.7071C99.6406 27.734 99.667 25.7547 99.5806 23.7786C99.853 21.1929 102.097 19.7357 103.682 19.3357C104.814 18.9429 109.124 19.1571 113.081 21.05C115.295 22.3805 117.4 23.8828 119.376 25.5429C120.81 27.6214 119.864 30.5071 119.484 31.7643C119.104 33.0214 113.863 36.2 111.525 37.3571C109.267 39.0214 104.198 39.7071 104.642 41.3786C105.08 43.25 108.521 46.2571 109.998 47.4786C112.148 49.0438 114.207 50.7299 116.164 52.5286C116.931 52.7299 117.6 53.1988 118.05 53.85C118.925 53.9071 119.24 54.7143 119.728 54.9286C120.402 55.2286 121.269 60.6429 118.222 57.9071C116.623 57.0857 113.203 55.6 111.31 54.3786C109.073 52.3929 109.346 53 106.564 50.9143C105.13 49.7929 104.32 48.8214 101.767 47.4429ZM109.769 35.3714C111.475 34.2214 111.375 34.1143 113.676 32.5571C117.792 29.3786 113.21 26.7786 110.55 25.7071C109.676 25.3 106.363 24.7786 104.757 24.4643C103.323 24.6571 102.348 24.55 101.825 25.6643C101.825 26.4286 101.308 28.25 102.327 28.6071C103.997 26.6357 105.79 27.5571 105.194 30.5928C104.152 33.0078 103.609 35.607 103.596 38.2357C105.682 37.9429 106.793 36.7786 109.769 35.3714Z" fill="#C20E1A"></path><path d="M128.102 55.1643C127.686 55.9714 127.005 55.7643 126.546 56.5214C125.356 56.7143 125.399 55.35 125.341 53.9357C125.284 52.7714 125.341 51.3 125.341 50.4929C125.023 49.4633 125.058 48.3573 125.442 47.35C125.499 45.5214 125.241 44.2571 125.585 42.5857C126.08 39.0143 126.675 32.3071 127.198 30.9928C127.378 28.1357 127.966 26.5357 127.915 24.4643C127.807 24.2709 127.644 24.114 127.446 24.0135C127.248 23.913 127.025 23.8735 126.804 23.9C126.201 24.2683 125.492 24.4266 124.789 24.35C123.459 24.5854 122.163 24.9862 120.932 25.5429C119.398 25.9429 119.011 25.6357 119.806 23.6643C119.835 22.5339 120.173 21.4328 120.781 20.4786C121.613 18.8143 124.366 19.2286 125.635 18.8286C126.352 19.0357 126.259 19.1357 127.894 18.6357C129.753 18.4242 131.632 18.4675 133.479 18.7643C134.619 18.3643 136.11 19.1786 137.286 19.1857C138.003 20 137.53 21.0643 137.587 22.2786C137.673 22.7357 137.724 24.25 137.243 23.95C136.055 23.8573 134.878 23.6492 133.73 23.3286C132.361 23.2143 131.135 23.3286 131.02 23.9214C131.506 24.3016 131.909 24.7763 132.205 25.3166C132.5 25.8569 132.683 26.4515 132.741 27.0643C132.246 30.5643 131.034 36.7929 130.059 39.6214C129.342 44.0714 129.342 45.2929 128.625 47.6214C128.102 51.7643 128.338 53.95 128.102 55.1643Z" fill="#C20E1A"></path><path d="M163.528 32.1643C164.101 42.45 155.641 49.8071 152.422 52.7857C151.689 53.3119 151.003 53.8997 150.371 54.5429C148.22 55.1429 146.349 56.2 144.241 56.1929C138.907 55.9143 137.788 49.5786 138.993 43.1429C138.993 42.6429 139.401 42.4286 139.408 42.1357C139.489 41.5467 139.474 40.9487 139.365 40.3643C139.279 40.0572 138.971 40.3643 138.964 40.5643C138.727 41.9286 137.415 41.7214 137.437 41.0643C137.659 39.95 137.437 38.4786 138.534 37.2643C140.247 33.7286 141.194 33.3286 142.405 28.7714C143.37 26.3745 144.5 24.0474 145.79 21.8071C146.686 21.2071 146.894 21 147.224 20.8C148.335 20.9071 148.399 22.2286 147.224 24.2929C146.679 26.1643 147.74 25.1571 147.94 24.7571C148.45 23.9 149.503 23.3929 150.493 22.8929C151.669 21.1214 152.751 21.2286 153.59 21.0286C154.078 21.0286 154.386 20.5214 154.874 20.4286C157.562 20.8429 158.853 22.1714 160.796 24.3571C162.373 26.6781 163.315 29.3693 163.528 32.1643ZM143.373 47.4214C144.614 53.5571 148.564 52.6572 152.787 48.7286C158.122 43.8929 157.311 41.8072 158.43 40.5429C160.509 34.7357 158.43 26.1143 152.529 26.2929C147.883 27.4286 147.159 28.9 145.266 31.3714C144.857 33.75 143.165 38 143.352 41.4429C143.294 43.5214 143.029 45.8071 143.373 47.4286V47.4214Z" fill="#C20E1A"></path><path d="M169.184 47.7429C168.245 49.8857 167.887 57.0286 166.711 56.9C165.277 56.7929 164.746 55.5286 164.875 54.3072C164.926 52.7429 165.98 46.9214 165.736 45.25C165.449 44.8357 164.581 44.4357 164.402 43.8214C164.196 43.0536 164.291 42.2364 164.667 41.5357C165.408 41.3348 166.059 40.8921 166.517 40.2786C166.955 38.7143 166.847 32.4786 166.919 30C167.061 28.0271 167.088 26.0475 166.998 24.0714C167.27 21.4929 169.521 20.0357 171.099 19.6357C172.239 19.2357 176.548 19.4572 180.513 21.3429C182.719 22.6753 184.818 24.175 186.793 25.8286C188.227 27.9214 187.281 30.8286 186.908 32.0643C186.535 33.3 181.28 36.4929 178.95 37.6572C176.698 39.3143 171.629 39.9929 172.067 41.6714C172.49 43.55 175.938 46.5571 177.415 47.7786C179.568 49.3384 181.629 51.0198 183.588 52.8143C184.354 53.0184 185.021 53.4899 185.467 54.1429C186.342 54.2 186.664 55.0071 187.152 55.2143C187.826 55.5214 188.7 60.9286 185.639 58.2C184.04 57.3786 180.62 55.8929 178.735 54.6714C176.498 52.6786 176.77 53.2929 173.988 51.2072C172.547 50.0929 171.744 49.1286 169.184 47.7429ZM177.193 35.6786C178.892 34.5214 178.799 34.4143 181.093 32.8572C185.209 29.6857 180.642 27.0786 177.967 26C177.1 25.5929 173.78 25.0714 172.174 24.7572C170.74 24.9572 169.772 24.8572 169.249 25.9643C169.249 26.7214 168.726 28.5429 169.744 28.9072C171.429 26.9357 173.207 27.8572 172.576 30.8929C171.534 33.308 170.99 35.9071 170.977 38.5357C173.099 38.2429 174.203 37.0786 177.193 35.6786Z" fill="#C20E1A"></path><path d="M193.382 56.5143C191.991 57.1214 191.267 56.6143 191.117 55.1429C190.643 51.4857 190.55 51.0857 191.174 46.6286C191.475 43.1857 191.719 41.5143 192.135 37.4143C192.923 35.6429 192.35 33.4643 191.755 33.6643C191.576 33.0572 191.755 30.9286 192.142 30.5214C192.242 30.4214 192.142 30.2214 191.97 29.8072C192.393 28.5429 192.314 27.9357 192.522 27.7357C192.823 27.3286 192.823 27.3286 193.648 24.4929C194.365 22.2214 195.275 20.6 197.189 20.6143C202.294 17.0928 198.903 25.4786 198.874 26.4929C198.846 27.5071 196.917 33.0214 197.189 33.6786C196.824 36.0571 196.121 38.2357 195.971 40.2072C195.44 45.0714 194.845 48.1071 194.687 50.5929C194.587 51.96 194.745 53.3338 195.153 54.6429C195.017 55.7357 194.25 55.2571 193.382 56.5143Z" fill="#C20E1A"></path></g><defs><clipPath id="clip0_4_8"><rect width="200" height="70" fill="white"></rect></clipPath></defs></svg> 